<?xml version="1.0" standalone="no"?>
<!DOCTYPE svg PUBLIC "-//W3C//DTD SVG 20010904//EN"
 "http://www.w3.org/TR/2001/REC-SVG-20010904/DTD/svg10.dtd">
<svg version="1.0" xmlns="http://www.w3.org/2000/svg"
 width="190.000000pt" height="70.000000pt" viewBox="0 0 190.000000 70.000000"
 preserveAspectRatio="xMidYMid meet">

<g transform="translate(0.000000,70.000000) scale(0.100000,-0.100000)"
fill="#000000" stroke="none">
<path d="M179 591 c-124 -23 -158 -75 -125 -196 41 -154 165 -306 236 -290 86
21 220 245 220 367 0 48 -38 91 -96 108 -53 15 -178 21 -235 11z m176 -22
c118 -22 147 -58 126 -155 -29 -127 -138 -284 -198 -284 -55 0 -111 56 -168
163 -45 88 -62 166 -45 207 15 36 36 49 105 66 64 16 107 17 180 3z"/>
<path d="M140 372 c0 -82 8 -112 32 -112 4 0 8 16 8 35 0 19 4 35 9 35 5 0 19
-16 31 -35 15 -25 29 -35 46 -35 l25 0 -26 37 c-14 21 -25 42 -25 47 0 6 13
-11 30 -37 27 -43 33 -47 68 -47 20 0 48 7 60 16 25 18 29 56 7 74 -11 9 -13
16 -5 24 16 16 12 51 -8 69 -23 21 -144 25 -124 5 7 -7 12 -16 12 -20 0 -4 -9
1 -20 12 -15 15 -33 20 -70 20 l-50 0 0 -88z m97 32 c7 -18 -12 -34 -39 -34
-13 0 -18 8 -18 25 0 20 5 25 25 25 14 0 28 -7 32 -16z m133 -4 c0 -16 -7 -20
-30 -20 -23 0 -30 4 -30 20 0 16 7 20 30 20 23 0 30 -4 30 -20z m5 -80 c0 -10
-12 -16 -32 -18 -28 -3 -33 0 -33 18 0 18 5 21 33 18 20 -2 32 -8 32 -18z"/>
<path d="M690 450 c0 -73 3 -90 15 -90 10 0 15 10 15 30 0 22 5 30 18 30 10 0
26 -13 35 -30 10 -16 25 -30 33 -30 18 0 18 10 -2 39 -16 22 -16 25 0 51 21
36 20 46 -4 70 -14 14 -33 20 -65 20 l-45 0 0 -90z m88 34 c2 -15 -4 -23 -20
-28 -36 -9 -38 -8 -38 25 0 27 3 30 28 27 19 -2 28 -9 30 -24z"/>
<path d="M899 525 c-31 -17 -54 -65 -45 -98 3 -13 17 -40 30 -60 l25 -37 -29
-47 c-34 -53 -36 -72 -15 -113 30 -58 90 -67 136 -21 18 19 29 40 29 58 0 36
-32 97 -54 101 -22 5 -20 -10 5 -53 24 -41 20 -79 -11 -95 -27 -14 -57 -4 -76
24 -21 33 -6 66 66 142 32 35 61 73 65 84 11 36 -4 88 -32 110 -30 23 -58 25
-94 5z m85 -47 c23 -32 20 -53 -13 -90 -28 -32 -30 -32 -49 -15 -11 10 -26 32
-32 48 -10 24 -10 33 4 54 21 33 68 34 90 3z"/>
<path d="M1060 535 c0 -3 14 -27 30 -53 19 -31 30 -63 30 -86 0 -25 4 -36 15
-36 11 0 15 11 15 38 0 24 10 52 30 82 34 51 36 60 16 60 -8 0 -24 -16 -36
-35 -12 -19 -23 -35 -25 -35 -2 0 -13 16 -25 35 -12 19 -28 35 -36 35 -8 0
-14 -2 -14 -5z"/>
<path d="M1225 463 c-15 -43 -29 -84 -32 -90 -8 -21 26 -14 37 7 7 13 21 20
40 20 20 0 31 -6 35 -20 3 -11 14 -20 24 -20 17 0 15 8 -13 87 -41 116 -56
119 -91 16z m55 -14 c0 -11 -7 -19 -16 -19 -11 0 -14 5 -10 16 3 9 6 20 6 25
0 6 5 7 10 4 6 -3 10 -15 10 -26z"/>
<path d="M1387 533 c-4 -3 -7 -44 -7 -90 l0 -83 55 0 c42 0 55 3 55 15 0 10
-11 15 -35 15 l-35 0 0 75 c0 56 -3 75 -13 75 -8 0 -17 -3 -20 -7z"/>
<path d="M1757 303 c-21 -5 -39 -46 -31 -67 3 -8 26 -24 50 -36 55 -25 53 -45
-5 -44 -33 1 -41 -3 -41 -18 0 -28 90 -26 116 3 17 18 17 23 4 46 -8 15 -30
31 -49 38 -59 20 -49 62 10 45 24 -7 29 -6 29 10 0 26 -33 36 -83 23z"/>
<path d="M520 210 l0 -90 53 0 c40 0 58 5 70 18 21 23 22 46 2 62 -9 8 -12 22
-8 41 8 42 -11 59 -68 59 l-49 0 0 -90z m79 61 c21 -13 5 -41 -24 -41 -18 0
-25 5 -25 18 0 31 21 41 49 23z m21 -96 c0 -22 -4 -25 -35 -25 -31 0 -35 3
-35 25 0 22 4 25 35 25 31 0 35 -3 35 -25z"/>
<path d="M690 210 c0 -73 3 -90 15 -90 10 0 15 11 15 35 0 48 30 48 53 0 9
-19 23 -35 32 -35 19 0 19 4 0 39 -13 26 -13 33 1 60 14 29 14 34 0 56 -14 21
-24 25 -66 25 l-50 0 0 -90z m68 64 c34 -10 26 -48 -10 -52 -25 -3 -28 0 -28
27 0 33 2 34 38 25z"/>
<path d="M1060 285 c0 -9 9 -15 25 -15 24 0 25 -2 25 -75 0 -60 3 -75 15 -75
12 0 15 15 15 75 0 73 1 75 25 75 16 0 25 6 25 15 0 12 -14 15 -65 15 -51 0
-65 -3 -65 -15z"/>
<path d="M1220 210 c0 -83 1 -90 20 -90 17 0 20 7 20 40 l0 40 40 0 40 0 0
-40 c0 -33 3 -40 20 -40 19 0 20 7 20 90 0 83 -1 90 -20 90 -16 0 -20 -7 -20
-35 0 -34 -1 -35 -40 -35 -39 0 -40 1 -40 35 0 28 -4 35 -20 35 -19 0 -20 -7
-20 -90z"/>
<path d="M1410 210 l0 -90 60 0 c47 0 60 3 60 15 0 11 -11 15 -40 15 -36 0
-40 3 -40 25 0 21 5 25 30 25 20 0 30 5 30 15 0 10 -10 15 -30 15 -23 0 -30 4
-30 20 0 17 7 20 40 20 29 0 40 4 40 15 0 12 -13 15 -60 15 l-60 0 0 -90z"/>
<path d="M1570 210 c0 -73 3 -90 15 -90 10 0 15 11 15 35 0 25 4 35 15 35 9 0
25 -16 36 -35 12 -19 27 -35 35 -35 18 0 18 4 -1 40 -14 27 -14 33 0 61 15 28
15 33 0 55 -13 20 -24 24 -65 24 l-50 0 0 -90z m68 64 c34 -10 26 -48 -10 -52
-25 -3 -28 0 -28 27 0 33 2 34 38 25z"/>
</g>
</svg>
